<svg width="32" height="32" viewBox="0 0 32 32" fill="none" xmlns="http://www.w3.org/2000/svg">
<path d="M16 28C22.6274 28 28 22.6274 28 16C28 9.37258 22.6274 4 16 4C9.37258 4 4 9.37258 4 16C4 22.6274 9.37258 28 16 28Z" stroke="#202231" stroke-width="2" stroke-linecap="round" stroke-linejoin="round"/>
<path d="M15 15H16V22H17" fill="#202231"/>
<path d="M15 15H16V22H17" stroke="#202231" stroke-width="2" stroke-linecap="round" stroke-linejoin="round"/>
<path d="M17.1875 10.5C17.1875 11.2939 16.5439 11.9375 15.75 11.9375C14.9561 11.9375 14.3125 11.2939 14.3125 10.5C14.3125 9.70609 14.9561 9.0625 15.75 9.0625C16.5439 9.0625 17.1875 9.70609 17.1875 10.5Z" fill="#202231" stroke="#202231" stroke-width="0.125"/>
</svg>
